HIERARCHY
ROOT Hips
{
 OFFSET 0.000000 0.000000 0.000000
 CHANNELS 6 Xposition Yposition Zposition Yrotation Xrotation Zrotation
 JOINT Chest
 {
  OFFSET 0.000000 10.080317 -0.001081
  CHANNELS 3 Yrotation Xrotation Zrotation
  JOINT Chest2
  {
   OFFSET 0.000000 11.096852 0.001963
   CHANNELS 3 Yrotation Xrotation Zrotation
   JOINT Chest3
   {
    OFFSET 0.000000 10.026525 0.000000
    CHANNELS 3 Yrotation Xrotation Zrotation
    JOINT Chest4
    {
     OFFSET 0.000000 10.026525 0.000000
     CHANNELS 3 Yrotation Xrotation Zrotation
     JOINT Neck
     {
      OFFSET 0.000000 14.108171 0.000000
      CHANNELS 3 Yrotation Xrotation Zrotation
      JOINT Head
      {
       OFFSET 0.000000 9.333493 0.004668
       CHANNELS 3 Yrotation Xrotation Zrotation
       End Site
       {
        OFFSET 0.000000 17.851786 0.002438
       }
      }
     }
     JOINT RightCollar
     {
      OFFSET -3.071622 7.873185 0.000000
      CHANNELS 3 Yrotation Xrotation Zrotation
      JOINT RightShoulder
      {
       OFFSET -14.378659 0.000000 0.000000
       CHANNELS 3 Yrotation Xrotation Zrotation
       JOINT RightElbow
       {
        OFFSET -30.778728 0.000000 0.000000
        CHANNELS 3 Yrotation Xrotation Zrotation
        JOINT RightWrist
        {
         OFFSET -25.164217 0.000000 0.000000
         CHANNELS 3 Yrotation Xrotation Zrotation
         End Site
         {
          OFFSET -18.796788 0.000000 0.000000
         }
        }
       }
      }
     }
     JOINT LeftCollar
     {
      OFFSET 3.071622 7.873185 0.000000
      CHANNELS 3 Yrotation Xrotation Zrotation
      JOINT LeftShoulder
      {
       OFFSET 14.378659 0.000000 0.000000
       CHANNELS 3 Yrotation Xrotation Zrotation
       JOINT LeftElbow
       {
        OFFSET 30.778728 0.000000 0.000000
        CHANNELS 3 Yrotation Xrotation Zrotation
        JOINT LeftWrist
        {
         OFFSET 25.164217 0.000000 0.000000
         CHANNELS 3 Yrotation Xrotation Zrotation
         End Site
         {
          OFFSET 18.796788 0.000000 0.000000
         }
        }
       }
      }
     }
    }
   }
  }
 }
 JOINT RightHip
 {
  OFFSET -8.194923 0.005295 0.000540
  CHANNELS 3 Yrotation Xrotation Zrotation
  JOINT RightKnee
  {
   OFFSET 0.000000 -42.473320 -0.000511
   CHANNELS 3 Yrotation Xrotation Zrotation
   JOINT RightAnkle
   {
    OFFSET 0.000000 -41.474259 -0.000865
    CHANNELS 3 Yrotation Xrotation Zrotation
    JOINT RightToe
    {
     OFFSET 0.000000 -7.354994 16.712725
     CHANNELS 3 Yrotation Xrotation Zrotation
     End Site
     {
      OFFSET 0.000000 -1.553903 6.764158
     }
    }
   }
  }
 }
 JOINT LeftHip
 {
  OFFSET 8.194923 0.005295 0.000540
  CHANNELS 3 Yrotation Xrotation Zrotation
  JOINT LeftKnee
  {
   OFFSET 0.000000 -42.473320 -0.000511
   CHANNELS 3 Yrotation Xrotation Zrotation
   JOINT LeftAnkle
   {
    OFFSET 0.000000 -41.474259 -0.000865
    CHANNELS 3 Yrotation Xrotation Zrotation
    JOINT LeftToe
    {
     OFFSET 0.000000 -7.354994 16.712725
     CHANNELS 3 Yrotation Xrotation Zrotation
     End Site
     {
      OFFSET 0.000000 -1.553903 6.764158
     }
    }
   }
  }
 }
}
MOTION
Frames: 15
Frame Time: 0.016667
0.0 0.0 0.0 0.0 0.0 0.0 10.0 11.116423 0.0 0.0 -5.290081 0.0 0.0 0.0 0.0 0.0 0.0 0.0 0.0 12.665069 0.0 0.0 0.57545 0.0 0.0 0.0 0.0 0.0 0.0 0.0 2.337306 0.0 0.0 -2.337306 0.0 0.0 0.0 0.0 0.0 0.0 0.0 0.0 -2.337306 0.0 0.0 2.337306 0.0 0.0 0.0 10.0 -20.0 0.0 0.0 0.0 0.0 0.0 20.0 0.0 0.0 0.0 0.0 10.0 20.0 0.0 0.0 0.0 0.0 0.0 -20.0 0.0 0.0 0.0
0.0 0.0 0.0 0.0 0.0 0.0 8.617096 2.689798 -0.145431 0.124874 1.200288 -0.119448 0.124874 1.200288 -0.119448 9.3887e-2 0.900192 -8.9828e-2 -1.078304 17.650673 1.22617 -2.405097 -3.36945 2.627675 -2.096292 1.160577 9.395218 -2.608227 -2.139105 74.761769 8.935112 8.796402 4.643968 -3.697358 -1.357971 -0.779999 -0.596643 0.428825 -5.976831 -1.739019 -5.975045 -72.146458 -5.556372 16.197316 -11.142054 2.717307 0.701623 10.335418 0.0 10.0 -20.0 0.0 0.0 0.0 0.0 0.0 20.0 0.0 0.0 0.0 0.0 10.0 20.0 0.0 0.0 0.0 0.0 0.0 -20.0 0.0 0.0 0.0
0.0 0.0 0.0 0.0 0.0 0.0 8.609258 2.688111 -0.146438 0.127254 1.199705 -0.119924 0.127254 1.199705 -0.119924 9.5672e-2 0.899754 -9.0189e-2 -1.079678 17.645196 1.254516 -2.417394 -3.378674 2.680569 -2.106434 1.156357 9.422273 -2.610379 -2.142454 74.76766 8.984158 8.809353 4.687371 -3.708945 -1.350318 -0.742727 -0.604747 0.423625 -5.957588 -1.745528 -5.980924 -72.167177 -5.642916 16.242057 -11.18156 2.71017 0.72701 10.350735 0.0 10.0 -20.0 0.0 0.0 0.0 0.0 0.0 20.0 0.0 0.0 0.0 0.0 10.0 20.0 0.0 0.0 0.0 0.0 0.0 -20.0 0.0 0.0 0.0
0.0 0.0 0.0 0.0 0.0 0.0 8.58643 2.670119 -0.140923 0.124032 1.192252 -0.117908 0.124032 1.192252 -0.117908 9.3251e-2 0.894165 -8.867e-2 -1.078124 17.650571 1.272174 -2.420358 -3.368181 2.712457 -2.081941 1.194704 9.436048 -2.623842 -2.147106 74.759365 9.052575 8.807764 4.733318 -3.71308 -1.351869 -0.723189 -0.595764 0.459618 -5.969544 -1.747582 -5.983151 -72.170139 -5.753098 16.327737 -11.240368 2.71718 0.752821 10.378079 0.0 10.0 -20.0 0.0 0.0 0.0 0.0 0.0 20.0 0.0 0.0 0.0 0.0 10.0 20.0 0.0 0.0 0.0 0.0 0.0 -20.0 0.0 0.0 0.0
0.0 0.0 0.0 0.0 0.0 0.0 8.549556 2.676224 -0.130352 0.120764 1.194025 -0.113666 0.120764 1.194025 -0.113666 9.0792e-2 0.895496 -8.5482e-2 -1.085502 17.641478 1.284809 -2.438511 -3.384412 2.738515 -2.027699 1.189636 9.436993 -2.612195 -2.134351 74.745386 9.141783 8.786486 4.790417 -3.711307 -1.354715 -0.700825 -0.578542 0.460853 -6.000483 -1.759754 -5.982359 -72.173039 -5.850965 16.389742 -11.288555 2.758124 0.772766 10.397935 0.0 10.0 -20.0 0.0 0.0 0.0 0.0 0.0 20.0 0.0 0.0 0.0 0.0 10.0 20.0 0.0 0.0 0.0 0.0 0.0 -20.0 0.0 0.0 0.0
0.0 0.0 0.0 0.0 0.0 0.0 8.532788 2.681223 -0.133038 0.120858 1.196795 -0.114717 0.120858 1.196795 -0.114717 9.0865e-2 0.897574 -8.6271e-2 -1.09737 17.628602 1.313098 -2.470369 -3.406997 2.795082 -2.024855 1.203157 9.468278 -2.620694 -2.143805 74.72003 9.242068 8.767115 4.862194 -3.7371 -1.356602 -0.634851 -0.589885 0.458778 -6.002681 -1.769342 -5.978632 -72.196266 -5.905017 16.434596 -11.315909 2.770337 0.7864 10.437501 0.0 10.0 -20.0 0.0 0.0 0.0 0.0 0.0 20.0 0.0 0.0 0.0 0.0 10.0 20.0 0.0 0.0 0.0 0.0 0.0 -20.0 0.0 0.0 0.0
0.0 0.0 0.0 0.0 0.0 0.0 8.516364 2.684461 -0.130131 0.123485 1.19731 -0.114089 0.123485 1.19731 -0.114089 9.2834e-2 0.897959 -8.5805e-2 -1.127889 17.620106 1.339798 -2.53597 -3.420841 2.854928 -2.052566 1.246579 9.493965 -2.618312 -2.16517 74.678429 9.360558 8.752013 4.965146 -3.778946 -1.342336 -0.567471 -0.623433 0.463565 -6.010271 -1.750233 -5.964162 -72.234116 -5.97434 16.507613 -11.359926 2.80134 0.805775 10.501649 0.0 10.0 -20.0 0.0 0.0 0.0 0.0 0.0 20.0 0.0 0.0 0.0 0.0 10.0 20.0 0.0 0.0 0.0 0.0 0.0 -20.0 0.0 0.0 0.0
0.0 0.0 0.0 0.0 0.0 0.0 8.49565 2.687426 -0.13227 0.125394 1.19894 -0.11451 0.125394 1.19894 -0.11451 9.4266e-2 0.899182 -8.6126e-2 -1.149788 17.613187 1.375269 -2.588606 -3.431713 2.927989 -2.061349 1.267556 9.526977 -2.639951 -2.180542 74.614587 9.47549 8.766347 5.089454 -3.796951 -1.309893 -0.52162 -0.633683 0.47758 -6.015153 -1.782724 -5.954431 -72.244885 -6.089116 16.577106 -11.450049 2.837176 0.854527 10.563624 0.0 10.0 -20.0 0.0 0.0 0.0 0.0 0.0 20.0 0.0 0.0 0.0 0.0 10.0 20.0 0.0 0.0 0.0 0.0 0.0 -20.0 0.0 0.0 0.0
0.0 0.0 0.0 0.0 0.0 0.0 8.484722 2.691538 -0.129301 0.130271 1.200178 -0.114466 0.130271 1.200178 -0.114466 9.7925e-2 0.90011 -8.6102e-2 -1.182323 17.605997 1.406215 -2.659342 -3.442819 2.996331 -2.082587 1.276371 9.567321 -2.607533 -2.196224 74.555849 9.563119 8.751142 5.16674 -3.809771 -1.291389 -0.550319 -0.653714 0.498035 -6.035438 -1.813658 -5.953121 -72.256655 -6.224111 16.681475 -11.556413 2.859889 0.923623 10.632739 0.0 10.0 -20.0 0.0 0.0 0.0 0.0 0.0 20.0 0.0 0.0 0.0 0.0 10.0 20.0 0.0 0.0 0.0 0.0 0.0 -20.0 0.0 0.0 0.0
0.0 0.0 0.0 0.0 0.0 0.0 8.45457 2.68994 -0.130667 0.131879 1.199778 -0.115862 0.131879 1.199778 -0.115862 9.9133e-2 0.899809 -8.7152e-2 -1.20452 17.605856 1.445119 -2.713489 -3.440876 3.075627 -2.062702 1.281585 9.60151 -2.589225 -2.20017 74.506888 9.651154 8.77388 5.226404 -3.80859 -1.277079 -0.586947 -0.664505 0.510196 -6.048217 -1.835231 -5.949002 -72.259711 -6.390578 16.820429 -11.694146 2.873367 0.97008 10.698445 0.0 10.0 -20.0 0.0 0.0 0.0 0.0 0.0 20.0 0.0 0.0 0.0 0.0 10.0 20.0 0.0 0.0 0.0 0.0 0.0 -20.0 0.0 0.0 0.0
0.0 0.0 0.0 0.0 0.0 0.0 8.427495 2.697854 -0.129803 0.138172 1.202627 -0.115039 0.138172 1.202627 -0.115039 0.103851 0.901944 -8.6548e-2 -1.230917 17.607684 1.48661 -2.776189 -3.434975 3.161054 -2.055719 1.27802 9.636741 -2.560486 -2.211663 74.447807 9.731806 8.801695 5.268384 -3.803484 -1.261271 -0.612774 -0.693274 0.510312 -6.080963 -1.858103 -5.93568 -72.235547 -6.590649 16.982769 -11.856446 2.897402 1.042448 10.786099 0.0 10.0 -20.0 0.0 0.0 0.0 0.0 0.0 20.0 0.0 0.0 0.0 0.0 10.0 20.0 0.0 0.0 0.0 0.0 0.0 -20.0 0.0 0.0 0.0
0.0 0.0 0.0 0.0 0.0 0.0 8.381075 2.705789 -0.121797 0.141213 1.20594 -0.114456 0.141213 1.20594 -0.114456 0.106132 0.904429 -8.6117e-2 -1.24996 17.611251 1.534404 -2.827399 -3.425826 3.25555 -2.02 1.290391 9.691334 -2.573526 -2.261057 74.351728 9.842039 8.860677 5.333461 -3.807488 -1.225914 -0.631499 -0.701733 0.518231 -6.104686 -1.90423 -5.962747 -72.231122 -6.755051 17.105634 -12.001978 2.900625 1.13028 10.869599 0.0 10.0 -20.0 0.0 0.0 0.0 0.0 0.0 20.0 0.0 0.0 0.0 0.0 10.0 20.0 0.0 0.0 0.0 0.0 0.0 -20.0 0.0 0.0 0.0
0.0 0.0 0.0 0.0 0.0 0.0 8.31979 2.71185 -0.11694 0.141413 1.207748 -0.112671 0.141413 1.207748 -0.112671 0.106279 0.905785 -8.478e-2 -1.273463 17.620369 1.582727 -2.886804 -3.406119 3.352336 -1.983778 1.302187 9.738097 -2.595474 -2.326635 74.24551 9.934859 8.905974 5.416031 -3.801559 -1.195506 -0.626707 -0.705365 0.548042 -6.147306 -1.982459 -6.020552 -72.223671 -6.848935 17.119862 -12.087448 2.866317 1.179427 10.943473 0.0 10.0 -20.0 0.0 0.0 0.0 0.0 0.0 20.0 0.0 0.0 0.0 0.0 10.0 20.0 0.0 0.0 0.0 0.0 0.0 -20.0 0.0 0.0 0.0
0.0 0.0 0.0 0.0 0.0 0.0 8.261237 2.718036 -0.113484 0.143783 1.211838 -0.110128 0.143783 1.211838 -0.110128 0.108052 0.908852 -8.2878e-2 -1.299678 17.626121 1.632602 -2.951839 -3.392414 3.453002 -1.949134 1.308672 9.785949 -2.609843 -2.39446 74.124242 10.04301 8.88233 5.48359 -3.820383 -1.171753 -0.615386 -0.726833 0.556 -6.195138 -2.048013 -6.06466 -72.230349 -6.904939 17.078446 -12.127221 2.791651 1.193859 11.058364 0.0 10.0 -20.0 0.0 0.0 0.0 0.0 0.0 20.0 0.0 0.0 0.0 0.0 10.0 20.0 0.0 0.0 0.0 0.0 0.0 -20.0 0.0 0.0 0.0
0.0 0.0 0.0 0.0 0.0 0.0 8.199192 2.728961 -0.107054 0.143822 1.216636 -0.107049 0.143822 1.216636 -0.107049 0.108075 0.912452 -8.057e-2 -1.325712 17.632488 1.684863 -3.01731 -3.377401 3.557973 -1.906802 1.313297 9.833403 -2.637905 -2.477244 73.988561 10.170969 8.837146 5.579218 -3.835559 -1.147678 -0.641543 -0.771488 0.551504 -6.228893 -2.079911 -6.114468 -72.261528 -6.960198 17.056632 -12.160812 2.734746 1.18309 11.217162 0.0 10.0 -20.0 0.0 0.0 0.0 0.0 0.0 20.0 0.0 0.0 0.0 0.0 10.0 20.0 0.0 0.0 0.0 0.0 0.0 -20.0 0.0 0.0 0.0
